<?xml version="1.0" encoding="utf-8"?>
<!-- Generator: Adobe Illustrator 21.0.0, SVG Export Plug-In . SVG Version: 6.00 Build 0)  -->
<svg version="1.1" id="Layer_1" xmlns="http://www.w3.org/2000/svg" xmlns:xlink="http://www.w3.org/1999/xlink" x="0px" y="0px"
	 viewBox="0 0 512 512" style="enable-background:new 0 0 512 512;" xml:space="preserve">
<g>
	<path d="M508.3,299.3c-2.4-17.2-5.8-35.5-10-54.6l-16.7,3.6l-16.7,3.7c4.1,18.4,7.3,35.9,9.5,51.9c2.2,16.1,3.4,30.8,3.4,43.7
		c0,9.3-0.6,17.7-1.8,24.9c-0.9,5.4-2.1,10.2-3.6,14.4c-1.1,3.1-2.4,5.8-3.7,8.1c-2,3.5-4.3,6.2-6.7,8.3c-2.5,2.1-5.3,3.7-8.8,4.9
		c-2.9,1-5.5,1.4-8.1,1.4c-3.2,0-6.6-0.6-10.3-2c-2.8-1.1-5.8-2.6-8.9-4.5c-4.7-3-9.7-7-14.7-11.9c-5.1-4.9-10.2-10.7-15.4-17.1
		c-7.4-9.3-15.5-17.3-24.7-24c-6.9-5-14.4-9.2-22.5-12.6c-12.2-5.1-25.6-8.4-40.8-10.5c-15.2-2-32.2-2.9-51.9-2.9
		c-17.5,0-33,0.6-46.9,2.2c-10.5,1.2-20.2,2.9-29.2,5.3c-6.8,1.8-13.2,4-19.2,6.6c-9.1,4-17.5,8.9-25,14.9c-7.6,6-14.4,13-20.7,20.8
		c-4.6,5.7-9.1,10.9-13.6,15.5c-6.7,6.8-13.2,12.1-19.1,15.4c-3,1.7-5.7,2.8-8.3,3.6c-2.6,0.8-5.1,1.1-7.5,1.1
		c-2.7,0-5.5-0.4-8.6-1.5c-1.7-0.6-3.3-1.4-4.7-2.3c-2.5-1.7-4.9-4-7.2-7.3c-1.7-2.5-3.3-5.5-4.8-9.2c-2.2-5.4-4-12.2-5.1-20.1
		c-1.2-7.9-1.8-16.9-1.8-26.8c0-12.6,1-26.7,3-41.9s4.9-31.5,8.7-48.5c4.9-21.7,10.2-41.3,16.2-58.5c4.5-12.9,9.3-24.5,14.4-34.7
		c7.7-15.3,16-27.3,24.8-36c4.4-4.4,8.9-7.9,13.6-10.8c4.7-2.9,9.5-5,14.6-6.5l0,0c7.7-2.2,15.7-3.3,23.7-3.3c0.1,0,0.3,0,0.5,0
		c5.5,0,10.9,0.8,17.1,2.2c4.6,1.1,9.7,2.5,15.4,4.1c8.5,2.4,18.3,5.1,29.8,7.2s24.8,3.6,40.2,3.6c13.7,0,25.7-1.2,36.3-2.9
		c15.9-2.6,28.6-6.5,39.1-9.4c5.3-1.5,10-2.7,14.4-3.5c4.4-0.8,8.5-1.3,12.6-1.3h0.1c0.1,0,0.3,0,0.4,0c7.6,0,15.2,1.1,22.6,3.2
		h-0.1c4.5,1.3,8.8,3.2,13,5.6c7.3,4.2,14.3,10.1,21,18c5,5.9,9.9,13,14.5,21.2c6.9,12.2,13.4,27,19.2,44
		c5.8,17,11.1,36.3,15.8,57.7l16.5-3.5l16.7-3.7c-5-22.7-10.7-43.5-17.2-62.2c-4.9-14.1-10.2-27.1-16.1-38.9
		c-8.9-17.7-19.2-32.8-31.4-44.9c-6.1-6-12.7-11.3-19.8-15.7c-7.1-4.3-14.7-7.8-22.7-10.1c-10.4-3-21.2-4.6-32.1-4.6
		c-0.2,0-0.3,0-0.5,0c-8.9,0-17.1,1.3-24.7,3.1c-5.8,1.3-11.3,2.9-16.9,4.5c-8.4,2.4-16.9,4.7-26.7,6.5s-20.8,3-34.1,3
		c-11.8,0-21.8-1-30.8-2.4c-13.4-2.2-24.4-5.5-35.6-8.6c-5.6-1.5-11.2-3-17.2-4.1c-5.9-1.1-12.2-1.9-18.9-1.9c-0.2,0-0.3,0-0.5,0
		c-11.2,0-22.3,1.5-33.1,4.5h-0.1h-0.1c-7.1,2.1-13.9,5-20.4,8.7c-11.2,6.5-21.2,15.2-30,25.6c-6.6,7.8-12.6,16.7-18.1,26.4
		c-8.3,14.6-15.4,31.2-21.8,49.7s-11.9,39-16.9,61.3c-4,17.9-7.1,35.2-9.2,51.6c-2.3,16.5-3.4,32-3.4,46.4c0,11.5,0.7,22.3,2.3,32.3
		c1.2,7.6,2.8,14.7,5,21.4c1.7,5,3.7,9.8,6,14.3c3.6,6.8,8.1,12.9,13.7,18c5.6,5.1,12.2,9.2,19.6,11.7c6.5,2.3,13.2,3.4,19.7,3.4
		c7.8,0,15.4-1.6,22.4-4.3c5.3-2,10.2-4.6,14.9-7.7c7.1-4.6,13.6-10.1,19.9-16.2c6.2-6.1,12.2-12.9,18-20.1
		c5.9-7.3,11.8-13,18.2-17.6c4.8-3.5,10-6.3,16-8.8c8.9-3.7,19.5-6.4,32.7-8.1c13.2-1.8,28.9-2.6,47.6-2.6c16.6,0,30.8,0.6,42.9,2
		c9.1,1,16.9,2.5,23.9,4.4c5.2,1.4,9.9,3,14.1,4.9c6.4,2.8,11.9,6.2,17.2,10.4c5.2,4.2,10.2,9.2,15.2,15.5
		c5.2,6.5,10.5,12.6,16.1,18.2c8.4,8.4,17.3,15.7,27.2,21.2c4.9,2.7,10.1,5,15.6,6.5c5.4,1.6,11.2,2.5,17,2.5
		c6.3,0,12.8-1.1,19.1-3.2c4.4-1.5,8.5-3.4,12.3-5.8c6.7-4.1,12.5-9.5,17.1-15.7c3.5-4.6,6.4-9.7,8.7-15.1
		c3.5-8.1,5.9-16.9,7.4-26.3c1.5-9.4,2.2-19.4,2.2-30C512,332.7,510.7,316.6,508.3,299.3z"/>
	<circle cx="294.4" cy="221.9" r="21.3"/>
	<path d="M341.3,247.5c-11.7,0-21.3,9.5-21.3,21.3c0,11.7,9.5,21.3,21.3,21.3c11.8,0,21.3-9.5,21.3-21.2v-0.1
		C362.6,257.1,353,247.5,341.3,247.5z"/>
	<circle cx="341.3" cy="174.9" r="21.3"/>
	<circle cx="388.3" cy="221.9" r="21.3"/>
	<path d="M204.8,204.8h-34.1v-34.1c0-9.4-7.6-17.1-17.1-17.1c-9.4,0-17.1,7.6-17.1,17.1v34.1h-34.1c-9.4,0-17.1,7.6-17.1,17.1
		c0,9.4,7.6,17.1,17.1,17.1h34.1v34.1c0,9.4,7.6,17.1,17.1,17.1c9.4,0,17.1-7.6,17.1-17.1V239h34.1c9.4,0,17.1-7.6,17.1-17.1
		C221.9,212.4,214.2,204.8,204.8,204.8z"/>
</g>
</svg>
